<svg width="15" height="13" viewBox="0 0 15 13" fill="none" xmlns="http://www.w3.org/2000/svg">
<path d="M10.9206 0C12.0447 0 12.989 0.371015 13.7534 1.11304C14.5178 1.85507 14.9 2.76078 14.9 3.83018C14.9 4.35396 14.7876 4.88321 14.5628 5.4179C14.3379 5.9526 14.0906 6.42728 13.8208 6.84194C13.5511 7.25661 13.0958 7.7913 12.455 8.44604C11.8143 9.10077 11.2747 9.63001 10.8363 10.0338C10.3979 10.4375 9.69532 11.054 8.72857 11.8834L7.68314 12.8L6.6377 11.9161C5.69344 11.065 4.99649 10.4375 4.54684 10.0338C4.09719 9.63001 3.55199 9.10077 2.91124 8.44604C2.27049 7.7913 1.81522 7.25661 1.54543 6.84194C1.27564 6.42728 1.03396 5.9526 0.820375 5.4179C0.606792 4.88321 0.5 4.35396 0.5 3.83018C0.5 2.76078 0.882201 1.85507 1.6466 1.11304C2.41101 0.371015 3.34403 0 4.44567 0C5.74965 0 6.82881 0.491049 7.68314 1.47315C8.53747 0.491049 9.61663 0 10.9206 0ZM7.75059 10.8685C8.85222 9.90827 9.65597 9.19352 10.1618 8.7243C10.6677 8.25507 11.2241 7.69309 11.8311 7.03836C12.4382 6.38363 12.8597 5.81074 13.0958 5.31969C13.3318 4.82864 13.4499 4.33214 13.4499 3.83018C13.4499 3.1318 12.9834 2.45831 12.5 2C11.8311 1.56347 11.628 1.40767 10.9206 1.40767C10.381 1.40767 9.9911 1.34747 9.27527 1.86598C8.4 2.5 8.4 2.5 7.75059 3.0445C7.10376 2.5 6.49719 2.17153 6.01382 1.86598C5.53044 1.56044 5.00773 1.40767 4.44567 1.40767C3.72623 1.40767 3.13044 1.63683 2.65831 2.09514C2.18618 2.55345 1.95012 3.1318 1.95012 3.83018C1.95012 4.33214 2.06253 4.82864 2.28735 5.31969C2.51218 5.81074 2.93372 6.38363 3.55199 7.03836C4.17026 7.69309 4.73232 8.25507 5.23817 8.7243C5.74403 9.19352 6.53653 9.90827 7.61569 10.8685L7.68314 10.934L7.75059 10.8685Z" fill="#ECECEC"/>
</svg>
