<svg width="12" height="11" viewBox="0 0 12 11" fill="none" xmlns="http://www.w3.org/2000/svg">
<g filter="url(#filter0_d_1_206)">
<path d="M9.65667 0.620692C9.83933 0.436333 10.0875 0.331772 10.347 0.329861C10.6066 0.327949 10.8563 0.428842 11.0416 0.61049C11.227 0.792138 11.3329 1.03977 11.3362 1.29927C11.3395 1.55877 11.24 1.80903 11.0593 1.99536L5.83267 8.52936C5.74288 8.62603 5.63453 8.70362 5.51409 8.75749C5.39365 8.81136 5.26359 8.84041 5.13167 8.8429C4.99976 8.84539 4.86869 8.82127 4.7463 8.77198C4.62391 8.72269 4.51271 8.64924 4.41934 8.55602L0.954009 5.09202C0.76986 4.90779 0.666441 4.65794 0.666504 4.39746C0.666566 4.13697 0.770105 3.88717 0.954342 3.70302C1.13858 3.51888 1.38842 3.41546 1.64891 3.41552C1.9094 3.41558 2.15919 3.51912 2.34334 3.70336L5.08401 6.44469L9.63067 0.651358C9.63894 0.640817 9.64784 0.630798 9.65734 0.621358L9.65667 0.620692Z" fill="white"/>
</g>
<defs>
<filter id="filter0_d_1_206" x="0.666504" y="0.329834" width="10.6697" height="10.5132" filterUnits="userSpaceOnUse" color-interpolation-filters="sRGB">
<feFlood flood-opacity="0" result="BackgroundImageFix"/>
<feColorMatrix in="SourceAlpha" type="matrix" values="0 0 0 0 0 0 0 0 0 0 0 0 0 0 0 0 0 0 127 0" result="hardAlpha"/>
<feOffset dy="2"/>
<feColorMatrix type="matrix" values="0 0 0 0 0 0 0 0 0 0 0 0 0 0 0 0 0 0 0.1 0"/>
<feBlend mode="normal" in2="BackgroundImageFix" result="effect1_dropShadow_1_206"/>
<feBlend mode="normal" in="SourceGraphic" in2="effect1_dropShadow_1_206" result="shape"/>
</filter>
</defs>
</svg>
