<svg width="15" height="13" viewBox="0 0 15 13" fill="none" xmlns="http://www.w3.org/2000/svg">
<path d="M14.0516 2.62311C13.8282 2.10979 13.506 1.64464 13.1032 1.25367C12.7 0.861541 12.2247 0.54992 11.703 0.335755C11.1621 0.112797 10.5819 -0.00132608 9.99615 1.16251e-05C9.17438 1.16251e-05 8.37263 0.223289 7.67588 0.645035C7.50919 0.745923 7.35084 0.856735 7.20083 0.97747C7.05081 0.856735 6.89246 0.745923 6.72577 0.645035C6.02902 0.223289 5.22727 1.16251e-05 4.4055 1.16251e-05C3.81377 1.16251e-05 3.24037 0.112477 2.69864 0.335755C2.17525 0.550762 1.70353 0.860043 1.29848 1.25367C0.895097 1.6442 0.572862 2.10946 0.35004 2.62311C0.118347 3.15732 0 3.72461 0 4.30844C0 4.85919 0.113346 5.43309 0.338372 6.01692C0.526727 6.50482 0.796758 7.01092 1.1418 7.52197C1.68853 8.33073 2.44028 9.17423 3.37372 10.0293C4.92056 11.4467 6.45241 12.4258 6.51741 12.4655L6.91246 12.7169C7.08748 12.8277 7.3125 12.8277 7.48752 12.7169L7.88257 12.4655C7.94758 12.4242 9.47775 11.4467 11.0263 10.0293C11.9597 9.17423 12.7115 8.33073 13.2582 7.52197C13.6032 7.01092 13.8749 6.50482 14.0616 6.01692C14.2866 5.43309 14.4 4.85919 14.4 4.30844C14.4017 3.72461 14.2833 3.15732 14.0516 2.62311V2.62311Z" fill="#ECECEC"/>
</svg>
